<?xml version="1.0" encoding="UTF-8" standalone="no"?>
<svg
   xmlns:dc="http://purl.org/dc/elements/1.1/"
   xmlns:cc="http://creativecommons.org/ns#"
   xmlns:rdf="http://www.w3.org/1999/02/22-rdf-syntax-ns#"
   xmlns:svg="http://www.w3.org/2000/svg"
   xmlns="http://www.w3.org/2000/svg"
   xmlns:sodipodi="http://sodipodi.sourceforge.net/DTD/sodipodi-0.dtd"
   xmlns:inkscape="http://www.inkscape.org/namespaces/inkscape"
   viewBox="0 0 54 36"
   version="1.1"
   id="svg4530"
   sodipodi:docname="2-action.svg"
   inkscape:version="0.92.4 (5da689c313, 2019-01-14)"
   width="54"
   height="36">
  <metadata
     id="metadata4536">
    <rdf:RDF>
      <cc:Work
         rdf:about="">
        <dc:format>image/svg+xml</dc:format>
        <dc:type
           rdf:resource="http://purl.org/dc/dcmitype/StillImage" />
        <dc:title />
      </cc:Work>
    </rdf:RDF>
  </metadata>
  <defs
     id="defs4534" />
  <sodipodi:namedview
     pagecolor="#ffffff"
     bordercolor="#666666"
     borderopacity="1"
     objecttolerance="10"
     gridtolerance="10"
     guidetolerance="10"
     inkscape:pageopacity="0"
     inkscape:pageshadow="2"
     inkscape:window-width="1278"
     inkscape:window-height="1368"
     id="namedview4532"
     showgrid="false"
     inkscape:zoom="6.5555556"
     inkscape:cx="-14.342098"
     inkscape:cy="18"
     inkscape:window-x="-7"
     inkscape:window-y="0"
     inkscape:window-maximized="0"
     inkscape:current-layer="svg4530" />
  <path
     inkscape:connector-curvature="0"
     style="fill:#ffac33;stroke:#000000;stroke-width:2;stroke-miterlimit:4;stroke-dasharray:none;stroke-opacity:1"
     id="path7294"
     d="m 23.6484,18.8494 c -0.4668,-0.4668 -0.4668,-1.23 0,-1.6968 L 35.1504,5.6494 c 0.4668,-0.4668 1.23,-0.4668 1.6968,0 l 11.5044,11.5044 c 0.4668,0.4668 0.4668,1.23 0,1.6968 l -11.5044,11.502 c -0.4668,0.4668 -1.23,0.4668 -1.6968,0 z" />
  <path
     d="m 5.6484,18.8494 c -0.4668,-0.4668 -0.4668,-1.23 0,-1.6968 L 17.1504,5.6494 c 0.4668,-0.4668 1.23,-0.4668 1.6968,0 l 11.5044,11.5044 c 0.4668,0.4668 0.4668,1.23 0,1.6968 l -11.5044,11.502 c -0.4668,0.4668 -1.23,0.4668 -1.6968,0 z"
     id="path4528"
     style="fill:#ffac33;stroke:#000000;stroke-width:2;stroke-miterlimit:4;stroke-dasharray:none;stroke-opacity:1"
     inkscape:connector-curvature="0" />
</svg>
