<?xml version="1.0" encoding="UTF-8" standalone="no"?>
<svg
   xmlns:dc="http://purl.org/dc/elements/1.1/"
   xmlns:cc="http://creativecommons.org/ns#"
   xmlns:rdf="http://www.w3.org/1999/02/22-rdf-syntax-ns#"
   xmlns:svg="http://www.w3.org/2000/svg"
   xmlns="http://www.w3.org/2000/svg"
   xmlns:sodipodi="http://sodipodi.sourceforge.net/DTD/sodipodi-0.dtd"
   xmlns:inkscape="http://www.inkscape.org/namespaces/inkscape"
   viewBox="0 0 36 36"
   version="1.1"
   id="svg4930"
   sodipodi:docname="fire.svg"
   inkscape:version="0.92.4 (5da689c313, 2019-01-14)">
  <metadata
     id="metadata4936">
    <rdf:RDF>
      <cc:Work
         rdf:about="">
        <dc:format>image/svg+xml</dc:format>
        <dc:type
           rdf:resource="http://purl.org/dc/dcmitype/StillImage" />
        <dc:title />
      </cc:Work>
    </rdf:RDF>
  </metadata>
  <defs
     id="defs4934" />
  <sodipodi:namedview
     pagecolor="#ffffff"
     bordercolor="#666666"
     borderopacity="1"
     objecttolerance="10"
     gridtolerance="10"
     guidetolerance="10"
     inkscape:pageopacity="0"
     inkscape:pageshadow="2"
     inkscape:window-width="958"
     inkscape:window-height="991"
     id="namedview4932"
     showgrid="false"
     inkscape:zoom="6.5555556"
     inkscape:cx="13.233656"
     inkscape:cy="-0.30508462"
     inkscape:window-x="-8"
     inkscape:window-y="0"
     inkscape:window-maximized="0"
     inkscape:current-layer="svg4930" />
  <path
     fill="#F4900C"
     d="M35 19c0-2.062-.367-4.039-1.04-5.868-.46 5.389-3.333 8.157-6.335 6.868-2.812-1.208-.917-5.917-.777-8.164.236-3.809-.012-8.169-6.931-11.794 2.875 5.5.333 8.917-2.333 9.125-2.958.231-5.667-2.542-4.667-7.042-3.238 2.386-3.332 6.402-2.333 9 1.042 2.708-.042 4.958-2.583 5.208-2.84.28-4.418-3.041-2.963-8.333C2.52 10.965 1 14.805 1 19c0 9.389 7.611 17 17 17s17-7.611 17-17z"
     id="path4926"
     style="fill:#f4580c;fill-opacity:1" />
  <path
     fill="#FFCC4D"
     d="M28.394 23.999c.148 3.084-2.561 4.293-4.019 3.709-2.106-.843-1.541-2.291-2.083-5.291s-2.625-5.083-5.708-6c2.25 6.333-1.247 8.667-3.08 9.084-1.872.426-3.753-.001-3.968-4.007C7.352 23.668 6 26.676 6 30c0 .368.023.73.055 1.09C9.125 34.124 13.342 36 18 36s8.875-1.876 11.945-4.91c.032-.36.055-.722.055-1.09 0-2.187-.584-4.236-1.606-6.001z"
     id="path4928"
     style="fill:#ffbc1c;fill-opacity:1" />
  <path
     style="fill:none;fill-opacity:1;stroke:#640000;stroke-opacity:1"
     d="M 19.917969,0.04296875 C 21.225446,2.4514577 21.962485,5.8615926 19.88573,8.0671949 17.985761,10.121622 14.351701,9.120451 13.30327,6.6690382 12.281149,5.5673913 13.122205,2.5319412 12.623552,2.3533699 9.867221,4.511984 9.416782,8.5522035 10.754619,11.626995 c 0.701429,1.837462 -0.172361,4.3248 -2.2934768,4.635111 C 6.7112306,16.783125 5.0184727,15.373826 4.7214733,13.677074 4.2552031,11.803275 4.5442375,9.8370797 5.0371094,8 0.31189394,13.387342 -0.32131058,21.824913 3.5002425,27.873131 7.0079724,33.761094 14.300059,37.031923 21.027708,35.729254 27.775934,34.583877 33.468944,28.981645 34.6907,22.242258 c 0.585677,-3.027631 0.33878,-6.215092 -0.729762,-9.109446 -0.251746,2.684005 -1.118117,5.952872 -3.884245,7.02414 -1.687346,0.602981 -3.923503,-0.456297 -3.945547,-2.401586 -0.196864,-2.860506 1.127649,-5.60544 0.737303,-8.4845954 C 26.786539,5.5798297 24.228796,2.4841514 21.138601,0.73094399 20.739363,0.48839324 20.331735,0.25976265 19.917969,0.04296875 Z"
     id="path816"
     inkscape:connector-curvature="0" />
</svg>
