<?xml version="1.0" encoding="UTF-8" standalone="no"?>
<svg
   xmlns:dc="http://purl.org/dc/elements/1.1/"
   xmlns:cc="http://creativecommons.org/ns#"
   xmlns:rdf="http://www.w3.org/1999/02/22-rdf-syntax-ns#"
   xmlns:svg="http://www.w3.org/2000/svg"
   xmlns="http://www.w3.org/2000/svg"
   xmlns:sodipodi="http://sodipodi.sourceforge.net/DTD/sodipodi-0.dtd"
   xmlns:inkscape="http://www.inkscape.org/namespaces/inkscape"
   viewBox="0 0 36 36"
   version="1.1"
   id="svg3723"
   sodipodi:docname="laser.svg"
   inkscape:version="0.92.4 (5da689c313, 2019-01-14)">
  <metadata
     id="metadata3729">
    <rdf:RDF>
      <cc:Work
         rdf:about="">
        <dc:format>image/svg+xml</dc:format>
        <dc:type
           rdf:resource="http://purl.org/dc/dcmitype/StillImage" />
      </cc:Work>
    </rdf:RDF>
  </metadata>
  <defs
     id="defs3727" />
  <sodipodi:namedview
     pagecolor="#ffffff"
     bordercolor="#666666"
     borderopacity="1"
     objecttolerance="10"
     gridtolerance="10"
     guidetolerance="10"
     inkscape:pageopacity="0"
     inkscape:pageshadow="2"
     inkscape:window-width="1920"
     inkscape:window-height="1001"
     id="namedview3725"
     showgrid="false"
     inkscape:zoom="22.444444"
     inkscape:cx="5.5693069"
     inkscape:cy="18"
     inkscape:window-x="-9"
     inkscape:window-y="-9"
     inkscape:window-maximized="1"
     inkscape:current-layer="svg3723" />
  <path
     d="M20 6c0 1.104-.896 2-2 2s-2-.896-2-2V2c0-1.104.896-2 2-2s2 .896 2 2v4zm0 28c0 1.104-.896 2-2 2s-2-.896-2-2v-4c0-1.104.896-2 2-2s2 .896 2 2v4zM6 16c1.104 0 2 .896 2 2s-.896 2-2 2H2c-1.104 0-2-.896-2-2s.896-2 2-2h4zm28 0c1.104 0 2 .896 2 2s-.896 2-2 2h-4c-1.104 0-2-.896-2-2s.896-2 2-2h4zM8.101 25.071c.781-.78 2.047-.781 2.828 0 .781.78.781 2.048 0 2.828l-2.828 2.829c-.781.78-2.048.78-2.828 0-.781-.781-.781-2.048 0-2.828l2.828-2.829zM27.899 5.272c.781-.781 2.047-.782 2.828 0 .781.781.781 2.047 0 2.829l-2.828 2.828c-.781.781-2.048.781-2.828 0-.781-.781-.781-2.047 0-2.829l2.828-2.828zm-2.828 22.627c-.78-.781-.781-2.047 0-2.828.78-.781 2.048-.781 2.828 0l2.829 2.828c.78.781.78 2.048 0 2.828-.781.781-2.048.781-2.828 0l-2.829-2.828zM18 9c-4.971 0-9 4.029-9 9 0 4.97 4.029 9 9 9s9-4.029 9-9c0-4.97-4.029-9-9-9zm0 14c-2.761 0-5-2.238-5-5s2.239-5 5-5c2.762 0 5 2.239 5 5s-2.238 5-5 5zM5.272 8.101c-.781-.781-.782-2.047 0-2.828.781-.781 2.047-.781 2.829 0l2.828 2.828c.781.781.781 2.048 0 2.828-.781.781-2.047.781-2.829 0L5.272 8.101z"
     id="path3721"
     style="fill:#ff1446;fill-opacity:1;stroke-width:0.5;stroke-miterlimit:4;stroke-dasharray:none;stroke:#000000;stroke-opacity:1"
     fill="#FFAC33" />
</svg>
