<?xml version="1.0" encoding="UTF-8" standalone="no"?>
<svg
   xmlns:dc="http://purl.org/dc/elements/1.1/"
   xmlns:cc="http://creativecommons.org/ns#"
   xmlns:rdf="http://www.w3.org/1999/02/22-rdf-syntax-ns#"
   xmlns:svg="http://www.w3.org/2000/svg"
   xmlns="http://www.w3.org/2000/svg"
   xmlns:sodipodi="http://sodipodi.sourceforge.net/DTD/sodipodi-0.dtd"
   xmlns:inkscape="http://www.inkscape.org/namespaces/inkscape"
   viewBox="0 0 36 36"
   version="1.1"
   id="svg3723"
   sodipodi:docname="laser.svg"
   inkscape:version="0.92.4 (5da689c313, 2019-01-14)">
  <metadata
     id="metadata3729">
    <rdf:RDF>
      <cc:Work
         rdf:about="">
        <dc:format>image/svg+xml</dc:format>
        <dc:type
           rdf:resource="http://purl.org/dc/dcmitype/StillImage" />
      </cc:Work>
    </rdf:RDF>
  </metadata>
  <defs
     id="defs3727" />
  <sodipodi:namedview
     pagecolor="#ffffff"
     bordercolor="#666666"
     borderopacity="1"
     objecttolerance="10"
     gridtolerance="10"
     guidetolerance="10"
     inkscape:pageopacity="0"
     inkscape:pageshadow="2"
     inkscape:window-width="958"
     inkscape:window-height="991"
     id="namedview3725"
     showgrid="false"
     inkscape:zoom="11.222222"
     inkscape:cx="3.6492989"
     inkscape:cy="12.968497"
     inkscape:window-x="-8"
     inkscape:window-y="0"
     inkscape:window-maximized="0"
     inkscape:current-layer="svg3723" />
  <path
     sodipodi:type="inkscape:offset"
     inkscape:radius="-0.32337341"
     inkscape:original="M 18 0 C 16.896 0 16 0.896 16 2 L 16 6 C 16 7.104 16.896 8 18 8 C 19.104 8 20 7.104 20 6 L 20 2 C 20 0.896 19.104 0 18 0 z M 29.3125 4.6855469 C 28.80075 4.6856719 28.288937 4.8809844 27.898438 5.2714844 L 25.070312 8.0996094 C 24.289313 8.8816094 24.289313 10.148687 25.070312 10.929688 C 25.850313 11.710687 27.117438 11.710688 27.898438 10.929688 L 30.726562 8.1015625 C 31.507562 7.3195625 31.507562 6.0524844 30.726562 5.2714844 C 30.336063 4.8804844 29.82425 4.6854219 29.3125 4.6855469 z M 6.6855469 4.6875 C 6.1736719 4.6875 5.6619844 4.8829375 5.2714844 5.2734375 C 4.4894844 6.0544375 4.4904844 7.3205625 5.2714844 8.1015625 L 8.0996094 10.929688 C 8.8816094 11.710688 10.148687 11.710688 10.929688 10.929688 C 11.710687 10.149688 11.710688 8.8825625 10.929688 8.1015625 L 8.1015625 5.2734375 C 7.7105625 4.8829375 7.1974219 4.6875 6.6855469 4.6875 z M 18 9 C 13.029 9 9 13.029 9 18 C 9 22.97 13.029 27 18 27 C 22.971 27 27 22.971 27 18 C 27 13.03 22.971 9 18 9 z M 18 13 C 20.762 13 23 15.239 23 18 C 23 20.761 20.762 23 18 23 C 15.239 23 13 20.762 13 18 C 13 15.238 15.239 13 18 13 z M 2 16 C 0.896 16 0 16.896 0 18 C 0 19.104 0.896 20 2 20 L 6 20 C 7.104 20 8 19.104 8 18 C 8 16.896 7.104 16 6 16 L 2 16 z M 30 16 C 28.896 16 28 16.896 28 18 C 28 19.104 28.896 20 30 20 L 34 20 C 35.104 20 36 19.104 36 18 C 36 16.896 35.104 16 34 16 L 30 16 z M 26.484375 24.484375 C 25.972375 24.484375 25.460313 24.679813 25.070312 25.070312 C 24.289313 25.851312 24.290312 27.117438 25.070312 27.898438 L 27.900391 30.726562 C 28.680391 31.507562 29.947516 31.507562 30.728516 30.726562 C 31.508516 29.946562 31.508516 28.679437 30.728516 27.898438 L 27.898438 25.070312 C 27.508437 24.679813 26.996375 24.484375 26.484375 24.484375 z M 9.515625 24.486328 C 9.003875 24.486453 8.4920625 24.680312 8.1015625 25.070312 L 5.2734375 27.900391 C 4.4924375 28.680391 4.4924375 29.947516 5.2734375 30.728516 C 6.0534375 31.508516 7.3205625 31.508516 8.1015625 30.728516 L 10.929688 27.898438 C 11.710687 27.118438 11.710688 25.850313 10.929688 25.070312 C 10.539188 24.679813 10.027375 24.486203 9.515625 24.486328 z M 18 28 C 16.896 28 16 28.896 16 30 L 16 34 C 16 35.104 16.896 36 18 36 C 19.104 36 20 35.104 20 34 L 20 30 C 20 28.896 19.104 28 18 28 z "
     style="fill:#ff426a;fill-opacity:1;stroke:#eb0033;stroke-width:1;stroke-miterlimit:4;stroke-dasharray:none;stroke-opacity:1"
     id="path3721"
     d="M 18,0.32421875 C 17.070965,0.32421875 16.324219,1.0709653 16.324219,2 v 4 c 0,0.9290347 0.746746,1.6757813 1.675781,1.6757812 0.929035,0 1.675781,-0.7467465 1.675781,-1.6757812 V 2 C 19.675781,1.0709653 18.929035,0.32421875 18,0.32421875 Z M 29.3125,5.0097656 C 28.882976,5.0098705 28.455676,5.1712766 28.126953,5.5 l -2.828125,2.828125 c -0.657579,0.6584217 -0.657342,1.715703 0,2.373047 0.65626,0.657099 1.713756,0.657338 2.371094,0 L 30.498047,7.8730469 C 31.155627,7.2146251 31.155389,6.1573425 30.498047,5.5 30.169382,5.1709136 29.742024,5.0096607 29.3125,5.0097656 Z M 6.6855469,5.0117188 C 6.2559827,5.0117188 5.8287727,5.1731805 5.5,5.5019531 4.8417409,6.1593704 4.8424669,7.2155137 5.5,7.8730469 l 2.828125,2.8281251 c 0.6584218,0.65758 1.715703,0.657343 2.373047,0 0.657099,-0.656259 0.657338,-1.7137561 0,-2.3710939 L 7.8730469,5.5019531 C 7.5439693,5.1732964 7.115111,5.0117188 6.6855469,5.0117188 Z M 18,9.3242188 c -4.79627,0 -8.6757812,3.8795112 -8.6757812,8.6757812 0,4.795235 3.8795542,8.675781 8.6757812,8.675781 4.79627,0 8.675781,-3.879511 8.675781,-8.675781 0,-4.795235 -3.879554,-8.6757813 -8.675781,-8.6757812 z m 0,3.3515622 c 2.936761,0 5.324219,2.388473 5.324219,5.324219 0,2.935746 -2.387458,5.324219 -5.324219,5.324219 -2.935746,0 -5.324219,-2.387458 -5.324219,-5.324219 0,-2.936761 2.388473,-5.324219 5.324219,-5.324219 z M 2,16.324219 c -0.9290347,0 -1.67578125,0.746746 -1.67578125,1.675781 0,0.929035 0.74674655,1.675781 1.67578125,1.675781 H 6 C 6.9290347,19.675781 7.6757813,18.929035 7.6757812,18 7.6757812,17.070965 6.9290347,16.324219 6,16.324219 Z m 28,0 c -0.929035,0 -1.675781,0.746746 -1.675781,1.675781 0,0.929035 0.746746,1.675781 1.675781,1.675781 h 4 c 0.929035,0 1.675781,-0.746746 1.675781,-1.675781 0,-0.929035 -0.746746,-1.675781 -1.675781,-1.675781 z m -3.515625,8.484375 c -0.429709,0 -0.857434,0.161703 -1.185547,0.490234 -0.657337,0.657338 -0.656612,1.71364 0,2.371094 l 2.830078,2.828125 c 0.656259,0.6571 1.713756,0.657338 2.371094,0 0.656179,-0.65618 0.656417,-1.713836 0,-2.371094 l -2.830078,-2.828125 c -0.328113,-0.328531 -0.755838,-0.490234 -1.185547,-0.490234 z m -16.96875,0.002 C 9.0854883,24.810652 8.6585271,24.9708 8.3300781,25.298828 l -2.828125,2.830078 c -0.6571002,0.656259 -0.6573379,1.713756 0,2.371094 0.6561794,0.656179 1.7138349,0.656417 2.3710938,0 l 2.8281251,-2.830078 c 0.657001,-0.656161 0.657002,-1.714932 0,-2.371094 C 10.37278,24.970437 9.9457613,24.810442 9.515625,24.810547 Z M 18,28.324219 c -0.929035,0 -1.675781,0.746746 -1.675781,1.675781 v 4 c 0,0.929035 0.746746,1.675781 1.675781,1.675781 0.929035,0 1.675781,-0.746746 1.675781,-1.675781 v -4 c 0,-0.929035 -0.746746,-1.675781 -1.675781,-1.675781 z" />
</svg>
