<?xml version="1.0" encoding="UTF-8" standalone="no"?>
<svg
   xmlns:dc="http://purl.org/dc/elements/1.1/"
   xmlns:cc="http://creativecommons.org/ns#"
   xmlns:rdf="http://www.w3.org/1999/02/22-rdf-syntax-ns#"
   xmlns:svg="http://www.w3.org/2000/svg"
   xmlns="http://www.w3.org/2000/svg"
   xmlns:sodipodi="http://sodipodi.sourceforge.net/DTD/sodipodi-0.dtd"
   xmlns:inkscape="http://www.inkscape.org/namespaces/inkscape"
   viewBox="0 0 36 36"
   version="1.1"
   id="svg4738"
   sodipodi:docname="physical.svg"
   inkscape:version="0.92.4 (5da689c313, 2019-01-14)">
  <metadata
     id="metadata4744">
    <rdf:RDF>
      <cc:Work
         rdf:about="">
        <dc:format>image/svg+xml</dc:format>
        <dc:type
           rdf:resource="http://purl.org/dc/dcmitype/StillImage" />
        <dc:title />
      </cc:Work>
    </rdf:RDF>
  </metadata>
  <defs
     id="defs4742" />
  <sodipodi:namedview
     pagecolor="#ffffff"
     bordercolor="#666666"
     borderopacity="1"
     objecttolerance="10"
     gridtolerance="10"
     guidetolerance="10"
     inkscape:pageopacity="0"
     inkscape:pageshadow="2"
     inkscape:window-width="958"
     inkscape:window-height="991"
     id="namedview4740"
     showgrid="false"
     inkscape:zoom="8"
     inkscape:cx="19.198661"
     inkscape:cy="3.1008231"
     inkscape:window-x="-8"
     inkscape:window-y="0"
     inkscape:window-maximized="0"
     inkscape:current-layer="svg4738" />
  <path
     fill="#CCD6DD"
     d="M24 29l5-5L6 1H1v5z"
     id="path4718" />
  <path
     fill="#9AAAB4"
     d="M1 1v5l23 23 2.5-2.5z"
     id="path4720" />
  <path
     fill="#642116"
     d="M32.143 34.028c.781.781 2.667-1.104 1.886-1.886l-5.186-6.128c-.78-.781-1.837-.992-2.357-.472l-.943.942c-.521.521-.31 1.576.472 2.357l6.128 5.187z"
     id="path4722" />
  <path
     fill="#BF6952"
     d="M22.479 30.257c.586.586 1.536.586 2.121 0l5.658-5.656c.586-.586.585-1.536 0-2.122-.586-.585-1.536-.586-2.122 0l-5.657 5.657c-.585.586-.585 1.536 0 2.121z"
     id="path4724" />
  <path
     fill="#FCAB40"
     d="M31.318 35.561c.585.586 1.535.586 2.121 0l2.121-2.121c.586-.586.586-1.536 0-2.122-.586-.585-1.535-.586-2.121 0l-2.121 2.122c-.586.584-.586 1.535 0 2.121z"
     id="path4726" />
  <path
     fill="#CCD6DD"
     d="M12 29l-5-5L30 1h5v5z"
     id="path4728" />
  <path
     fill="#9AAAB4"
     d="M12 29L35 6V1L9.5 26.5z"
     id="path4730" />
  <path
     fill="#642116"
     d="M3.857 34.028c-.781.781-2.667-1.104-1.886-1.886l5.186-6.128c.781-.781 1.836-.992 2.357-.472l.942.942c.521.521.31 1.576-.471 2.357l-6.128 5.187z"
     id="path4732" />
  <path
     fill="#BF6952"
     d="M13.521 30.257c-.585.586-1.536.586-2.121 0l-5.657-5.656c-.586-.586-.585-1.536 0-2.122.586-.585 1.536-.586 2.122 0l5.657 5.657c.584.586.584 1.536-.001 2.121z"
     id="path4734" />
  <path
     fill="#FCAB40"
     d="M4.682 35.561c-.585.586-1.536.586-2.121 0L.439 33.44c-.586-.586-.585-1.536 0-2.122.585-.585 1.536-.586 2.122 0l2.121 2.122c.586.584.586 1.535 0 2.121z"
     id="path4736" />
  <path
     d="M 1 1 L 1 6 L 13 18 L 8.1933594 22.806641 L 7.8652344 22.478516 C 7.2792344 21.892516 6.3281875 21.893516 5.7421875 22.478516 C 5.1571875 23.064516 5.1561875 24.015563 5.7421875 24.601562 L 7.15625 26.013672 L 2.6191406 31.376953 L 2.5605469 31.318359 C 1.9745469 30.732359 1.0244531 30.733359 0.43945312 31.318359 C -0.14554688 31.904359 -0.14654687 32.853453 0.43945312 33.439453 L 2.5605469 35.560547 C 3.1455469 36.146547 4.0966406 36.146547 4.6816406 35.560547 C 5.2676406 34.974547 5.2676406 34.023453 4.6816406 33.439453 L 4.6230469 33.380859 L 9.984375 28.841797 L 11.400391 30.257812 C 11.985391 30.843812 12.936484 30.843812 13.521484 30.257812 C 14.106484 29.672813 14.105484 28.722719 13.521484 28.136719 L 13.193359 27.806641 L 18 23 L 22.808594 27.808594 L 22.478516 28.136719 C 21.893516 28.722719 21.893516 29.672813 22.478516 30.257812 C 23.064516 30.843812 24.014609 30.843812 24.599609 30.257812 L 26.015625 28.841797 L 31.376953 33.380859 L 31.318359 33.439453 C 30.732359 34.023453 30.732359 34.974547 31.318359 35.560547 C 31.903359 36.146547 32.853453 36.146547 33.439453 35.560547 L 35.560547 33.439453 C 36.146547 32.853453 36.146547 31.904359 35.560547 31.318359 C 34.974547 30.733359 34.025453 30.732359 33.439453 31.318359 L 33.380859 31.376953 L 28.84375 26.013672 L 30.257812 24.601562 C 30.843812 24.015563 30.842813 23.064516 30.257812 22.478516 C 29.671813 21.893516 28.722719 21.892516 28.136719 22.478516 L 27.808594 22.808594 L 23 18 L 35 6 L 35 1 L 30 1 L 18 13 L 6 1 L 1 1 z "
     id="path1556"
     style="stroke:#323232;stroke-opacity:1;fill:none" />
</svg>
