<?xml version="1.0" encoding="UTF-8" standalone="no"?>
<svg
   xmlns:dc="http://purl.org/dc/elements/1.1/"
   xmlns:cc="http://creativecommons.org/ns#"
   xmlns:rdf="http://www.w3.org/1999/02/22-rdf-syntax-ns#"
   xmlns:svg="http://www.w3.org/2000/svg"
   xmlns="http://www.w3.org/2000/svg"
   xmlns:sodipodi="http://sodipodi.sourceforge.net/DTD/sodipodi-0.dtd"
   xmlns:inkscape="http://www.inkscape.org/namespaces/inkscape"
   viewBox="0 0 36 36"
   version="1.1"
   id="svg4738"
   sodipodi:docname="physical.svg"
   inkscape:version="0.92.4 (5da689c313, 2019-01-14)">
  <metadata
     id="metadata4744">
    <rdf:RDF>
      <cc:Work
         rdf:about="">
        <dc:format>image/svg+xml</dc:format>
        <dc:type
           rdf:resource="http://purl.org/dc/dcmitype/StillImage" />
        <dc:title></dc:title>
      </cc:Work>
    </rdf:RDF>
  </metadata>
  <defs
     id="defs4742" />
  <sodipodi:namedview
     pagecolor="#ffffff"
     bordercolor="#666666"
     borderopacity="1"
     objecttolerance="10"
     gridtolerance="10"
     guidetolerance="10"
     inkscape:pageopacity="0"
     inkscape:pageshadow="2"
     inkscape:window-width="1920"
     inkscape:window-height="1001"
     id="namedview4740"
     showgrid="false"
     inkscape:zoom="6.5555556"
     inkscape:cx="18"
     inkscape:cy="18"
     inkscape:window-x="-9"
     inkscape:window-y="-9"
     inkscape:window-maximized="1"
     inkscape:current-layer="svg4738" />
  <path
     fill="#CCD6DD"
     d="M24 29l5-5L6 1H1v5z"
     id="path4718" />
  <path
     fill="#9AAAB4"
     d="M1 1v5l23 23 2.5-2.5z"
     id="path4720" />
  <path
     fill="#642116"
     d="M32.143 34.028c.781.781 2.667-1.104 1.886-1.886l-5.186-6.128c-.78-.781-1.837-.992-2.357-.472l-.943.942c-.521.521-.31 1.576.472 2.357l6.128 5.187z"
     id="path4722" />
  <path
     fill="#BF6952"
     d="M22.479 30.257c.586.586 1.536.586 2.121 0l5.658-5.656c.586-.586.585-1.536 0-2.122-.586-.585-1.536-.586-2.122 0l-5.657 5.657c-.585.586-.585 1.536 0 2.121z"
     id="path4724" />
  <path
     fill="#FCAB40"
     d="M31.318 35.561c.585.586 1.535.586 2.121 0l2.121-2.121c.586-.586.586-1.536 0-2.122-.586-.585-1.535-.586-2.121 0l-2.121 2.122c-.586.584-.586 1.535 0 2.121z"
     id="path4726" />
  <path
     fill="#CCD6DD"
     d="M12 29l-5-5L30 1h5v5z"
     id="path4728" />
  <path
     fill="#9AAAB4"
     d="M12 29L35 6V1L9.5 26.5z"
     id="path4730" />
  <path
     fill="#642116"
     d="M3.857 34.028c-.781.781-2.667-1.104-1.886-1.886l5.186-6.128c.781-.781 1.836-.992 2.357-.472l.942.942c.521.521.31 1.576-.471 2.357l-6.128 5.187z"
     id="path4732" />
  <path
     fill="#BF6952"
     d="M13.521 30.257c-.585.586-1.536.586-2.121 0l-5.657-5.656c-.586-.586-.585-1.536 0-2.122.586-.585 1.536-.586 2.122 0l5.657 5.657c.584.586.584 1.536-.001 2.121z"
     id="path4734" />
  <path
     fill="#FCAB40"
     d="M4.682 35.561c-.585.586-1.536.586-2.121 0L.439 33.44c-.586-.586-.585-1.536 0-2.122.585-.585 1.536-.586 2.122 0l2.121 2.122c.586.584.586 1.535 0 2.121z"
     id="path4736" />
</svg>
