<?xml version="1.0" encoding="UTF-8" standalone="no"?>
<svg
   xmlns:dc="http://purl.org/dc/elements/1.1/"
   xmlns:cc="http://creativecommons.org/ns#"
   xmlns:rdf="http://www.w3.org/1999/02/22-rdf-syntax-ns#"
   xmlns:svg="http://www.w3.org/2000/svg"
   xmlns="http://www.w3.org/2000/svg"
   xmlns:sodipodi="http://sodipodi.sourceforge.net/DTD/sodipodi-0.dtd"
   xmlns:inkscape="http://www.inkscape.org/namespaces/inkscape"
   viewBox="0 0 36 36"
   version="1.1"
   id="svg5639"
   sodipodi:docname="reaction.svg"
   inkscape:version="0.92.4 (5da689c313, 2019-01-14)">
  <metadata
     id="metadata5645">
    <rdf:RDF>
      <cc:Work
         rdf:about="">
        <dc:format>image/svg+xml</dc:format>
        <dc:type
           rdf:resource="http://purl.org/dc/dcmitype/StillImage" />
      </cc:Work>
    </rdf:RDF>
  </metadata>
  <defs
     id="defs5643" />
  <sodipodi:namedview
     pagecolor="#ffffff"
     bordercolor="#666666"
     borderopacity="1"
     objecttolerance="10"
     gridtolerance="10"
     guidetolerance="10"
     inkscape:pageopacity="0"
     inkscape:pageshadow="2"
     inkscape:window-width="1278"
     inkscape:window-height="1368"
     id="namedview5641"
     showgrid="false"
     inkscape:zoom="6.5555556"
     inkscape:cx="-8.0084746"
     inkscape:cy="18"
     inkscape:window-x="-7"
     inkscape:window-y="0"
     inkscape:window-maximized="0"
     inkscape:current-layer="svg5639" />
  <path
     d="m 21.665032,21.665045 2.444256,2.444256 c -3.37392,3.37392 -8.844768,3.373056 -12.219552,-8.64e-4 -1.9414079,-1.940544 -2.7596159,-4.575744 -2.4658559,-7.1064 l -3.4879678,0.317088 c -0.18576,3.31776 0.974592,6.697728 3.5095678,9.233568 4.7234879,4.723488 12.3837119,4.724352 17.1063359,0 l 2.443392,2.443392 0.733536,-8.064576 z M 26.55268,9.4463569 c -4.724352,-4.7234871 -12.381984,-4.7234871 -17.1063359,0 L 7.0029523,7.0029655 6.2694163,15.067541 14.333992,14.334005 11.889736,11.889749 c 3.374784,-3.3739201 8.843904,-3.3739201 12.218688,0 1.942272,1.941408 2.759616,4.576608 2.467584,7.107264 l 3.487104,-0.316224 C 30.249736,15.362165 29.08852,11.982197 26.55268,9.4463569 Z"
     id="path5637"
     inkscape:connector-curvature="0"
     style="fill:#006bb8;fill-opacity:1;stroke-width:0.86400002;stroke:none;stroke-opacity:1" />
</svg>
