<?xml version="1.0" encoding="UTF-8" standalone="no"?>
<svg
   xmlns:dc="http://purl.org/dc/elements/1.1/"
   xmlns:cc="http://creativecommons.org/ns#"
   xmlns:rdf="http://www.w3.org/1999/02/22-rdf-syntax-ns#"
   xmlns:svg="http://www.w3.org/2000/svg"
   xmlns="http://www.w3.org/2000/svg"
   xmlns:sodipodi="http://sodipodi.sourceforge.net/DTD/sodipodi-0.dtd"
   xmlns:inkscape="http://www.inkscape.org/namespaces/inkscape"
   viewBox="0 0 36 36"
   version="1.1"
   id="svg4544"
   sodipodi:docname="reaction.svg"
   inkscape:version="0.92.4 (5da689c313, 2019-01-14)">
  <metadata
     id="metadata4550">
    <rdf:RDF>
      <cc:Work
         rdf:about="">
        <dc:format>image/svg+xml</dc:format>
        <dc:type
           rdf:resource="http://purl.org/dc/dcmitype/StillImage" />
      </cc:Work>
    </rdf:RDF>
  </metadata>
  <defs
     id="defs4548" />
  <sodipodi:namedview
     pagecolor="#ffffff"
     bordercolor="#666666"
     borderopacity="1"
     objecttolerance="10"
     gridtolerance="10"
     guidetolerance="10"
     inkscape:pageopacity="0"
     inkscape:pageshadow="2"
     inkscape:window-width="1278"
     inkscape:window-height="1368"
     id="namedview4546"
     showgrid="false"
     inkscape:zoom="18.541911"
     inkscape:cx="19.905749"
     inkscape:cy="15.398163"
     inkscape:window-x="-7"
     inkscape:window-y="0"
     inkscape:window-maximized="0"
     inkscape:current-layer="svg4544" />
  <path
     style="fill:#39b1ff;fill-opacity:1;stroke:#000000;stroke-width:1.20000005;stroke-linejoin:round;stroke-miterlimit:4;stroke-dasharray:none;stroke-opacity:1"
     d="m 8.0757479,9.5348728 c 0,0 5.8880921,-2.2319413 9.0062991,-2.1768944 2.083001,0.036772 4.400991,0.5013631 6.220374,1.7272612 1.895042,1.2768764 3.08464,2.7583924 3.495439,5.0881554 0.821601,4.65953 -3.053524,7.338723 -6.568416,8.301244 l -6.795379,1.86085 -0.764052,-4.333154 -6.6527538,7.874876 8.9449088,5.124586 -0.764052,-4.333154 6.79538,-1.86085 C 26.852006,25.203495 32.374563,20.461857 31.131014,13.409343 30.509241,9.8830861 28.306307,7.5556725 25.468653,5.8452669 22.851543,4.2677945 19.584365,4.2272064 16.811088,4.5455148 13.296039,4.9489614 8.0757479,9.5348728 8.0757479,9.5348728 Z"
     id="path4542"
     inkscape:connector-curvature="0"
     sodipodi:nodetypes="csscscccccscssc" />
</svg>
